<?xml version="1.0" encoding="utf-8" ?>
<!-- Generated by AutoXChange 64-bit  V23.08.94 from Tailor Made Software -->
<!-- www.tailormade.com and www.cadviewer.com -->
<!DOCTYPE svg PUBLIC '-//W3C//DTD SVG 1.0//EN' 
'http://www.w3.org/TR/2001/REC-SVG-20010904/DTD/svg10.dtd'>
<svg id="tmsSVG53" contentScriptType="text/ecmascript" xmlns:xlink="http://www.w3.org/1999/xlink" zoomAndPan="magnify" 
contentStyleType="text/css" preserveAspectRatio="xMidYMid meet" 
width="2500" height="1899.28" viewBox="0 0 2500 1899.28" 
version="1.1" xmlns="http://www.w3.org/2000/svg" xmlns:cvjs="http://www.tailormade.com/" stroke-linecap="butt" stroke-linejoin="round" fill-rule="evenodd" >
<defs>
	<style id="cv_styles" type = "text/css">
	    <![CDATA[
	   #tmsSVG53 { background-color: white; opacity: 1.}
		:root {
		    --tmsMinLineWidth: 0.6;
		    --tmsMinDashLength: 0.6;
		    --tmsHLWidth: 0.6;
		    --tmsNumberOfLayouts: 1;
		    --tmsNumberOfSVGViewports: 0;
         --tmsMinFixedLineWidth: 0.6;
		    --tmsbPostFix: 0;
		}
		.tmsPoints {
		    fill: none;
		    stroke-width: var(--tmsMinLineWidth);
		    r: calc(var(--tmsMinLineWidth)/2.0);
		}
		.ZWhl {
		    stroke-width: var(--tmsHLWidth);
		}
		.ZW {
		    stroke-width: var(--tmsMinLineWidth);
		}
		.ZW6 {
		    stroke-width: calc(var(--tmsMinLineWidth)*6);
		}
		.ZW10 {
		    stroke-width: calc(var(--tmsMinLineWidth)*10);
		}
		.ZW20 {
		    stroke-width: calc(var(--tmsMinLineWidth)*20);
		}
		.ZW100 {
		    stroke-width: calc(var(--tmsMinLineWidth)*100);
		}
		.nZW {
		}
		.sLW_0_2{
		    stroke-width: calc(var(--tmsMinFixedLineWidth)*0.333333);
		}
		.sLW_0_6{
		    stroke-width: var(--tmsMinFixedLineWidth);
		}
		.hyperlinks:hover {
		    stroke-width: 3;
		}
		.hyperimage image{
			opacity: 0;
		}
		.hyperimage:hover image{
			opacity: 1;
		}
		.hyperimage:hover path{
			stroke-width: 3;
		}
		.hyperimage:visited{
			color: red;
		}
	]]></style>
	</defs>
<metadata>
<text id="cadviewer_worldUnits">
{ "globalOrigin": { "x": 130.253906, "y" : 22.974739}, 
						"units": "cm",
						"measurementType": "Metric",
						"lengthType": "Decimal",
						"lengthPrecision": 3,
						"blockUnitsFormat": "Centimeters",
						"svgToWorldUnits": 0.490000,
						"worldToSVGUnits": 2.040816
}
</text>
<text id="cadviewer_drawingCoordinates">
{ "DWG": 
    { "lowerLeft": { "x": 130.253906, "y" : 22.974739}, 
      "upperRight": { "x": 1355.253906, "y" : 953.622234} 
    },
 "SVG": 
    { "lowerLeft": { "x": 0.000000, "y" : 1899.640301}, 
      "upperRight": { "x": 2500.000000, "y" : 0.359699} 
    },
 "Drawing Height": 1900
}
</text>
<text id="cadviewer_vqBuilding"></text>
<text id="cadviewer_vqFloor"></text>
<text id="cadviewer_multiPages">
{ "multiPages": 2, 
                   "currentPage":1,
                   "pages" : [
                        { "fileName":"Fadac89e38217fc7fae8f8599105a28fed5a6e31c", "pageName":"ModelSpace"},
                        { "fileName":"Fadac89e38217fc7fae8f8599105a28fed5a6e31c__Layout1", "pageName":"Layout1 (Uninitialized)"}
                   ]
}
</text>
</metadata>
<g id="cv_main_drawing">
<g id="layer_PAREDE" class="layer_PAREDE"  cvjs:layerName="PAREDE" cvjs:plottable="YES"
 cvjs:status="ON" visibility="visible">
<g id="cvclr_1" stroke="#F0F" fill="none">
<path id="cv_2" class="ZW" d="M1219.9,699.85l0,30.61M51.02,265.31L51.02,989.8M51.02,1020.41L51.02,1183.67M51.02,1204.08l-0,81.63M0,1336.73L0,214.29H189.29M556.63,214.29H663.27M684.69,265.31H556.63M189.29,265.31H51.02M714.29,142.86L714.29,786.73M684.69,265.31L684.69,824.49M684.69,971.43l0,18.37M714.29,806.12H1072.96M714.29,786.73H1072.96M1219.9,806.12h60.2M1219.9,786.73h15.31M1264.8,786.73h15.31M1427.04,806.12h37.24M1483.67,806.12H1816.33M1427.04,786.73H1786.73M1785.71,91.84l-0,-91.84M1816.33,30.61L1816.33,806.12M1786.73,142.86L1786.73,786.73M663.27,214.29L663.27,91.84H829.34M1125.26,91.84H1380.36M1676.28,91.84H1785.71M1786.73,142.86H1676.28M1380.36,142.86H1264.8M1235.2,142.86H1125.26M829.34,142.86H714.29M1785.71,0h51.02M2408.16,0h45.92M2428.57,30.61h-20.41M1836.73,30.61h-20.41M2428.57,1765.31L2428.57,30.61M2454.08,1816.33h-43.88M2222.45,1816.33h-18.37M2173.47,1816.33H1795.92M1744.9,1816.33H1234.69M1265.31,1765.31H1367.35M1265.31,1714.29H1367.35M1265.31,1693.88H1387.76M1387.76,1765.31H2174.49M2174.49,1561.22h29.59M2204.08,1765.31h18.37M2410.2,1765.31h18.37M1265.31,1765.31l0,-51.02M1265.31,1693.88l0,-20.41M1265.31,1428.57l0,-24.49M1281.63,1404.08l0,-87.76M1367.35,1765.31l0,-51.02M1387.76,1765.31l-0,-71.43M1234.69,1336.73l-0,91.84M1234.69,1673.47L1234.69,1816.33M2204.08,1765.31L2204.08,1561.22M2174.49,1765.31L2174.49,1561.22M1281.63,1316.33H1540.82M1571.43,1316.33H1693.88M1142.86,1020.41L1142.86,1183.67M1142.86,1204.08l-0,81.63M1091.84,1204.08l0,81.63M1071.43,1183.67L1071.43,1285.71M0,1336.73H474.49M576.53,1336.73H714.29M816.33,1336.73H1183.67M1224.49,1336.73h10.2M1816.33,1285.71H1683.67M1653.06,1285.71H1224.49M1183.67,1285.71h-10.2M1142.86,1285.71h-51.02M1071.43,1285.71H816.33M714.29,1285.71h-61.22M622.45,1285.71h-45.92M474.49,1285.71H122.45M102.04,1285.71h-51.02M51.02,989.8H265.31M391.84,989.8H684.69M714.29,989.8H863.27M1653.06,1020.41h-20.41M1506.12,1020.41H1173.47M1142.86,1020.41H989.8M863.27,1020.41H653.06M622.45,1020.41H391.84M265.31,1020.41H51.02M122.45,1183.67h-71.43M102.04,1204.08h-51.02M653.06,1285.71L653.06,1020.41M714.29,989.8l0,-18.37M714.29,824.49l0,-18.37M622.45,1020.41L622.45,1285.71M576.53,1285.71l0,51.02M474.49,1285.71l0,51.02M122.45,1183.67L122.45,1285.71M265.31,989.8l0,30.61M391.84,989.8l0,30.61M684.69,824.49h29.59M684.69,971.43h29.59M1427.04,786.73l0,19.39M1280.1,786.73l0,19.39M1072.96,786.73l0,19.39M1219.9,786.73l0,19.39M2410.2,1765.31l0,51.02M2222.45,1765.31l0,51.02M829.34,142.86l0,-51.02M1125.26,142.86l0,-51.02M1676.28,142.86l-0,-51.02M1380.36,142.86l0,-51.02M1091.84,1204.08h51.02M189.29,265.31l0,-51.02M556.63,265.31l0,-51.02M989.8,989.8H1464.29M1483.67,989.8h22.45M1632.65,989.8h51.02M2479.59,30.61h20.41M2500,0h-45.92M2479.59,30.61L2479.59,1765.31M2454.08,1816.33h43.88M2497.96,1765.31h-18.37M1724.49,1332.65L1724.49,1438.78M2497.96,1765.31l-0,51.02M2500,30.61l0,-30.61M1693.88,1408.16h-16.33M1587.76,1408.16h-16.33M1693.88,1316.33l0,91.84M1587.76,1408.16l0,30.61M1677.55,1408.16l0,30.61M1587.76,1438.78h-46.94M1571.43,1408.16l0,-91.84M1540.82,1438.78L1540.82,1316.33M1173.47,1020.41L1173.47,1285.71M1483.67,989.8l0,-18.37M1483.67,824.49l-0,-18.37M1464.29,824.49l-0,-18.37M1464.29,824.49h19.39M1464.29,971.43h19.39M1677.55,1438.78h46.94M1836.73,30.61l0,-30.61M2408.16,30.61l0,-30.61M714.29,1285.71l0,51.02M816.33,1285.71l0,51.02M989.8,989.8l0,30.61M863.27,989.8l-0,30.61M1265.31,1673.47h-30.61M1265.31,1428.57h-30.61M1483.67,971.43l0,18.37M1464.29,971.43l0,18.37M1683.67,989.8L1683.67,1285.71M1653.06,1020.41L1653.06,1285.71M1632.65,989.8l0,30.61M1506.12,989.8l0,30.61M1142.86,1183.67h-71.43M1795.92,1816.33l-0,82.95M2173.47,1897.96l0,-81.63M2204.08,1897.96l0,-81.63M1744.9,1899.28l0,-82.95M102.04,1204.08l0,81.63M1265.31,1404.08h16.33M1724.49,1332.65h91.84l0,-46.94M1183.67,1336.73l0,-51.02M1224.49,1336.73l0,-51.02M2173.47,1897.96h30.61M1235.2,142.86L1235.2,786.73M1264.8,142.86L1264.8,786.73" />
</g>
<g style="font-family: arial, helvetica, sans-serif" stroke="none" fill="#7F0000">
<g font-size="170.935254" stroke="none" fill="#7F0000">
<text id="cv_3" transform="scale(1.111111 1) translate(450 1519.42) rotate(330) " >For Demonstration Purposes Only</text>
<text id="cv_4" transform="scale(1.111111 1) translate(900 1519.42) rotate(330) " >Tailor Made Software, Ltd</text>
</g>
</g>
</g>
<g id="layer_ESQUADRIA" class="layer_ESQUADRIA"  cvjs:layerName="ESQUADRIA" cvjs:plottable="YES"
 cvjs:status="ON" visibility="visible">
<g id="cvclr_5" stroke="#FF0" fill="none">
<path id="cv_6" class=" ZW" d="M385.71,1020.41V1146.94h6.12V1020.41h-6.12" />
<path id="cv_7" class=" ZW" d="M2404.08,1765.31V1577.55h6.12V1765.31h-6.12" />
<path id="cv_8" class=" ZW" d="M537.76,971.43H684.69v-6.12H537.76v6.12" />
<path id="cv_9" class=" ZW" d="M1280.1,639.8V786.73h6.12V639.8h-6.12" />
<path id="cv_10" class=" ZW" d="M1219.9,639.8V786.73h-6.12V639.8h6.12" />
<path id="cv_11" class=" ZW" d="M1317.35,971.43H1464.29v-6.12H1317.35v6.12" />
<path id="cv_12" class=" ZW" d="M869.39,1020.41V1146.94h-6.12V1020.41h6.12" />
<path id="cv_13" class=" ZW" d="M1626.53,1020.41V1146.94h6.12V1020.41h-6.12" />
<path id="cv_14" class=" ZW" d="M1836.73,18.37H2408.16v-6.12H1836.73v6.12" />
<path id="cv_15" class=" ZW" d="M1380.36,120.41H1676.28v-6.12H1380.36v6.12" />
<path id="cv_16" class=" ZW" d="M829.34,120.41H1125.26v-6.12H829.34v6.12" />
<path id="cv_17" class=" ZW" d="M189.29,242.86H556.63v-6.12H189.29v6.12" />
<path id="cv_18" class=" ZW" d="M474.49,1314.29H576.53v-6.12H474.49v6.12" />
<path id="cv_19" class=" ZW" d="M714.29,1314.29H816.33v-6.12H714.29v6.12" />
<path id="cv_20" class=" ZW" d="M1183.67,1314.29h40.82v-6.12h-40.82v6.12" />
<path id="cv_21" class=" ZW" d="M1246.94,1428.57V1673.47h6.12V1428.57h-6.12" />
</g>
<g style="font-family: arial, helvetica, sans-serif" stroke="none" fill="#7F0000">
<g font-size="170.935254" stroke="none" fill="#7F0000">
<text id="cv_22" transform="scale(1.111111 1) translate(450 1519.42) rotate(330) " >For Demonstration Purposes Only</text>
<text id="cv_23" transform="scale(1.111111 1) translate(900 1519.42) rotate(330) " >Tailor Made Software, Ltd</text>
</g>
</g>
</g>
<g id="layer_EQUIP" class="layer_EQUIP"  cvjs:layerName="EQUIP" cvjs:plottable="YES"
 cvjs:status="ON" visibility="visible">
<g id="cvclr_24" stroke="#000" fill="none">
<path id="cv_25" class=" ZW" d="M1263.27,1102.04l-0.05,-1.79l-0.15,-1.78l-0.25,-1.77l-0.35,-1.75l-0.45,-1.73l-0.55,-1.7l-0.64,-1.67l-0.74,-1.63l-0.92,-1.76l-1.03,-1.7l-1.14,-1.63l-1.37,-1.71l-1.48,-1.61l-1.59,-1.5l-1.69,-1.39l-1.61,-1.16l-1.68,-1.05l-1.75,-0.95l-1.62,-0.76l-1.66,-0.66l-1.7,-0.57l-1.73,-0.47l-1.75,-0.37l-1.77,-0.27l-1.78,-0.17l-1.79,-0.07l-1.79,0.03l-1.78,0.13l-1.77,0.23l-1.76,0.33l-1.74,0.43l-1.71,0.53l-1.68,0.62l-1.64,0.72l-1.6,0.81l-1.72,1l-1.65,1.11l-1.73,1.33l-1.64,1.45l-1.66,1.71l-1.41,1.67l-1.18,1.6l-1.08,1.67l-0.97,1.74l-0.78,1.61l-0.68,1.65l-0.59,1.69l-0.49,1.72l-0.4,1.74l-0.3,1.76l-0.2,1.78l-0.1,1.79v1.79l0.11,1.79l0.21,1.78l0.31,1.76l0.41,1.74l0.5,1.72l0.6,1.68l0.69,1.65l0.79,1.61l0.98,1.73l1.09,1.66l1.31,1.75l1.43,1.65l1.69,1.69l1.65,1.43l1.75,1.31l1.66,1.09l1.73,0.98l1.61,0.79l1.65,0.69l1.68,0.6l1.72,0.5l1.74,0.41l1.76,0.31l1.78,0.21l1.79,0.11h1.79l1.79,-0.1l1.78,-0.2l1.76,-0.3l1.74,-0.4l1.72,-0.49l1.69,-0.59l1.65,-0.68l1.61,-0.78l1.74,-0.97l1.67,-1.08l1.6,-1.18l1.67,-1.41l1.71,-1.66l1.45,-1.64l1.33,-1.73l1.11,-1.65l1,-1.72l0.81,-1.6l0.72,-1.64l0.62,-1.68l0.53,-1.71l0.43,-1.74l0.33,-1.76l0.23,-1.77l0.13,-1.78l0.03,-1.39" />
<path id="cv_26" class=" ZW" d="M1258.16,1102.04l-0.05,-1.67l-0.16,-1.66l-0.26,-1.65l-0.36,-1.63l-0.46,-1.6l-0.63,-1.72l-0.74,-1.68l-0.86,-1.62l-1.06,-1.7l-1.19,-1.61l-1.42,-1.64l-1.67,-1.63l-1.67,-1.38l-1.64,-1.14l-1.72,-1.02l-1.64,-0.82l-1.69,-0.7l-1.74,-0.58l-1.61,-0.42l-1.64,-0.32l-1.65,-0.22l-1.66,-0.12l-1.67,-0.01l-1.66,0.09l-1.65,0.2l-1.64,0.3l-1.62,0.4l-1.75,0.56l-1.7,0.68l-1.65,0.8l-1.73,1l-1.65,1.12l-1.69,1.35l-1.69,1.61l-1.44,1.62l-1.21,1.6l-1.08,1.68l-0.88,1.61l-0.76,1.67l-0.65,1.71l-0.49,1.59l-0.38,1.62l-0.28,1.64l-0.18,1.66l-0.07,1.67l0.03,1.67l0.14,1.66l0.24,1.65l0.34,1.63l0.44,1.61l0.6,1.73l0.72,1.68l0.84,1.63l1.04,1.71l1.17,1.63l1.4,1.66l1.65,1.65l1.66,1.4l1.63,1.17l1.71,1.04l1.63,0.84l1.68,0.72l1.73,0.6l1.61,0.44l1.63,0.34l1.65,0.24l1.66,0.14l1.67,0.03l1.67,-0.07l1.66,-0.18l1.64,-0.28l1.62,-0.38l1.59,-0.49l1.71,-0.65l1.67,-0.76l1.61,-0.88l1.68,-1.08l1.6,-1.21l1.62,-1.44l1.61,-1.69l1.35,-1.69l1.12,-1.65l1,-1.73l0.8,-1.65l0.68,-1.7l0.56,-1.75l0.4,-1.62l0.3,-1.64l0.2,-1.65l0.09,-1.66v-0.67" />
<path id="cv_27" class="ZW" d="M829.34,91.84H1125.26M1125.26,142.86H829.34M1380.36,142.86H1676.28M1676.28,91.84H1380.36M474.49,1285.71H576.53M576.53,1336.73H474.49M189.29,265.31H556.63M556.63,214.29H189.29M1234.69,1428.57L1234.69,1673.47M1265.31,1428.57L1265.31,1673.47M1836.73,30.61H2408.16M2408.16,0H1836.73M714.29,1285.71H816.33M816.33,1336.73H714.29M1224.49,1285.71h-40.82M1224.49,1336.73h-40.82" />
</g>
<g style="font-family: arial, helvetica, sans-serif" stroke="none" fill="#7F0000">
<g font-size="170.935254" stroke="none" fill="#7F0000">
<text id="cv_28" transform="scale(1.111111 1) translate(450 1519.42) rotate(330) " >For Demonstration Purposes Only</text>
<text id="cv_29" transform="scale(1.111111 1) translate(900 1519.42) rotate(330) " >Tailor Made Software, Ltd</text>
</g>
</g>
</g>
<g id="layer_MOBIL" class="layer_MOBIL"  cvjs:layerName="MOBIL" cvjs:plottable="YES"
 cvjs:status="ON" visibility="visible">
<g id="cvclr_30" stroke="#000" fill="none">
<path id="cv_31" class=" ZW" d="M1575.51,1320.41v83.67H1689.8v-83.67H1575.51" />
<path id="cv_32" class="ZW" d="M1677.55,1438.78h-89.8M1587.76,1408.16h89.8M428.57,1020.41L428.57,1285.71M418.37,1020.41L418.37,1285.71M826.53,1020.41L826.53,1285.71M836.73,1020.41L836.73,1285.71M408.16,1173.47H204.08M183.67,1193.88h-61.22M408.16,1281.63H122.45M126.53,1193.88l0,87.76M408.16,1173.47L408.16,1285.71M204.08,1173.47l-20.41,20.41M846.94,1173.47L846.94,1285.71M1010.2,1193.88h61.22M847.14,1281.63H1071.43M1067.35,1281.63l0,-87.55M1010.2,1193.88l-20.41,-20.41H846.94M1275.51,1281.63h-97.96M1275.51,1024.49h-97.96M1177.55,1020.41L1177.55,1285.71M1275.51,1020.41L1275.51,1285.71" />
</g>
<g style="font-family: arial, helvetica, sans-serif" stroke="none" fill="#7F0000">
<g font-size="170.935254" stroke="none" fill="#7F0000">
<text id="cv_33" transform="scale(1.111111 1) translate(450 1519.42) rotate(330) " >For Demonstration Purposes Only</text>
<text id="cv_34" transform="scale(1.111111 1) translate(900 1519.42) rotate(330) " >Tailor Made Software, Ltd</text>
</g>
</g>
<g class="SAT11S_2" id="cv_Block_SAT11S_2_1">
<g id="cvclr_35" stroke="#000" fill="none">
<path id="cv_36" class=" ZW" d="M1370.74,1644.15l0.86,0.36l1.01,1.01l0.45,1.58v0.79" />
<path id="cv_37" class=" ZW" d="M1373.62,1662.82l-1.64,1.74l-1.7,1.68l-1.77,1.61l-1.83,1.54l-1.88,1.48l-1.61,1.17l-1.65,1.12l-1.68,1.07l-1.71,1.02l-1.74,0.96l-1.77,0.91l-1.8,0.85l-1.83,0.8l-1.85,0.74l-1.87,0.68l-1.89,0.62l-1.91,0.56l-1.93,0.5l-1.94,0.44l-1.96,0.38l-1.97,0.32l-1.98,0.26l-1.98,0.19l-1.99,0.13l-1.99,0.07h-0.8h-0.4" />
<path id="cv_38" class=" ZW" d="M1279.45,1662.82l1.64,1.74l1.7,1.68l1.77,1.61l1.83,1.54l1.88,1.48l1.61,1.17l1.65,1.12l1.68,1.07l1.71,1.02l1.74,0.96l1.77,0.91l1.8,0.85l1.83,0.8l1.85,0.74l1.87,0.68l1.89,0.62l1.91,0.56l1.93,0.5l1.94,0.44l1.96,0.38l1.97,0.32l1.98,0.26l1.98,0.19l1.99,0.13l1.99,0.07h0.8h0.4" />
<path id="cv_39" class=" ZW" d="M1282.32,1644.15l-0.86,0.36l-1.01,1.01l-0.45,1.58v0.79" />
<path id="cv_40" class=" ZW" d="M1326.53,1615.31l2.32,0.01l2.32,0.04l2.32,0.07l2.32,0.1l2.32,0.13l2.32,0.16l2.32,0.18l2.31,0.21l2.31,0.24l2.31,0.27l2.31,0.3l2.3,0.33l2.3,0.36l2.29,0.38l2.29,0.41l2.28,0.44l2.28,0.47l1.14,0.25l1.63,0.44l1.63,0.85l0.17,0.12l0.04,0.03" />
<path id="cv_41" class=" ZW" d="M1374.49,1660.94v20.69l-0.18,1.6l-0.58,1.6l-1.12,1.62l-1.59,1.3l-1.6,0.71l-1.63,0.3l-0.4,0.01h-81.72l-1.6,-0.19l-1.6,-0.59l-1.61,-1.13l-1.29,-1.6l-0.7,-1.6l-0.28,-1.63l-0.01,-0.36v-20.74" />
<path id="cv_42" class=" ZW" d="M1282.7,1621.08l1.6,-0.9l1.61,-0.49l0.25,-0.04l2.27,-0.48l2.28,-0.46l2.28,-0.43l2.29,-0.4l2.29,-0.37l2.3,-0.34l2.3,-0.31l2.31,-0.28l2.31,-0.26l2.31,-0.23l2.32,-0.2l2.32,-0.17l2.32,-0.14l2.32,-0.11l2.32,-0.08l2.32,-0.06l2.32,-0.03h1.16" />
<path id="cv_43" class=" ZW" d="M1278.57,1660.94v-39.69l0.45,-1.6l1.01,-1.01l0.92,-0.38h0.02" />
<path id="cv_44" class=" ZW" d="M1372.09,1618.26l0.94,0.38l1.01,1.01l0.45,1.58v39.71" />
<path id="cv_45" class=" ZW" d="M1282.7,1625.97l1.6,-0.9l1.61,-0.49l0.25,-0.04l2.27,-0.48l2.28,-0.46l2.28,-0.43l2.29,-0.4l2.29,-0.37l2.3,-0.34l2.3,-0.31l2.31,-0.28l2.31,-0.26l2.31,-0.23l2.32,-0.2l2.32,-0.17l2.32,-0.14l2.32,-0.11l2.32,-0.08l2.32,-0.06l2.32,-0.03h1.16" />
<path id="cv_46" class=" ZW" d="M1326.53,1620.19l2.32,0.01l2.32,0.04l2.32,0.07l2.32,0.1l2.32,0.13l2.32,0.16l2.32,0.18l2.31,0.21l2.31,0.24l2.31,0.27l2.31,0.3l2.3,0.33l2.3,0.36l2.29,0.38l2.29,0.41l2.28,0.44l2.28,0.47l1.14,0.25l1.63,0.44l1.63,0.85l0.17,0.12l0.04,0.03" />
<path id="cv_47" class=" ZW" d="M1282.7,1630.55l1.6,-0.9l1.61,-0.49l0.25,-0.04l2.27,-0.48l2.28,-0.46l2.28,-0.43l2.29,-0.4l2.29,-0.37l2.3,-0.34l2.3,-0.31l2.31,-0.28l2.31,-0.26l2.31,-0.23l2.32,-0.2l2.32,-0.17l2.32,-0.14l2.32,-0.11l2.32,-0.08l2.32,-0.06l2.32,-0.03h1.16" />
<path id="cv_48" class=" ZW" d="M1326.53,1624.78l2.32,0.01l2.32,0.04l2.32,0.07l2.32,0.1l2.32,0.13l2.32,0.16l2.32,0.18l2.31,0.21l2.31,0.24l2.31,0.27l2.31,0.3l2.3,0.33l2.3,0.36l2.29,0.38l2.29,0.41l2.28,0.44l2.28,0.47l1.14,0.25l1.63,0.44l1.63,0.85l0.17,0.12l0.04,0.03" />
<path id="cv_49" class=" ZW" d="M1282.7,1635.14l1.6,-0.9l1.61,-0.49l0.25,-0.04l2.27,-0.48l2.28,-0.46l2.28,-0.43l2.29,-0.4l2.29,-0.37l2.3,-0.34l2.3,-0.31l2.31,-0.28l2.31,-0.26l2.31,-0.23l2.32,-0.2l2.32,-0.17l2.32,-0.14l2.32,-0.11l2.32,-0.08l2.32,-0.06l2.32,-0.03h1.16" />
<path id="cv_50" class=" ZW" d="M1326.53,1629.36l2.32,0.01l2.32,0.04l2.32,0.07l2.32,0.1l2.32,0.13l2.32,0.16l2.32,0.18l2.31,0.21l2.31,0.24l2.31,0.27l2.31,0.3l2.3,0.33l2.3,0.36l2.29,0.38l2.29,0.41l2.28,0.44l2.28,0.47l1.14,0.25l1.63,0.44l1.63,0.85l0.17,0.12l0.04,0.03" />
<path id="cv_51" class=" ZW" d="M1282.7,1640.02l1.6,-0.9l1.61,-0.49l0.25,-0.04l2.27,-0.48l2.28,-0.46l2.28,-0.43l2.29,-0.4l2.29,-0.37l2.3,-0.34l2.3,-0.31l2.31,-0.28l2.31,-0.26l2.31,-0.23l2.32,-0.2l2.32,-0.17l2.32,-0.14l2.32,-0.11l2.32,-0.08l2.32,-0.06l2.32,-0.03h1.16" />
<path id="cv_52" class=" ZW" d="M1326.53,1634.24l2.32,0.01l2.32,0.04l2.32,0.07l2.32,0.1l2.32,0.13l2.32,0.16l2.32,0.18l2.31,0.21l2.31,0.24l2.31,0.27l2.31,0.3l2.3,0.33l2.3,0.36l2.29,0.38l2.29,0.41l2.28,0.44l2.28,0.47l1.14,0.25l1.63,0.44l1.63,0.85l0.17,0.12l0.04,0.03" />
<path id="cv_53" class="ZW" d="M1370.74,1644.15A 182.891257 182.891257 0 0 0 1326.54 1638.78M1373.62,1662.82A 6.321307 6.321307 0 0 0 1374.49 1660.94M1278.57,1660.94A 6.321307 6.321307 0 0 0 1279.45 1662.82M1326.54,1638.78A 182.891257 182.891257 0 0 0 1282.33 1644.15" />
<circle id="cv_54" class="ZW" cx="1326.53" cy="1657.14" r="4.693878" />
</g>
<g id="cvclr_55" stroke="#A55252" fill="none">
<path id="cv_56" class=" ZW" d="M1269.39,1620.71l0.22,-1.63l0.71,-1.61l1.46,-1.61l1.6,-0.89l0.62,-0.19l2.58,-0.64l2.58,-0.61l2.59,-0.58l2.6,-0.54l2.6,-0.51l2.61,-0.48l2.62,-0.45l2.62,-0.41l2.63,-0.38l2.63,-0.35l2.64,-0.32l2.64,-0.28l2.64,-0.25l2.65,-0.22l2.65,-0.18l2.65,-0.15l2.65,-0.12l2.65,-0.09l2.65,-0.05l2.65,-0.02l2.65,0.01l2.65,0.05l2.65,0.08l2.65,0.11l2.65,0.15l2.65,0.18l2.64,0.21l2.64,0.24l2.64,0.28l2.63,0.31l2.63,0.34l2.63,0.38l2.62,0.41l2.62,0.44l2.61,0.47l2.6,0.51l2.6,0.54l2.59,0.57l2.58,0.6l2.58,0.63l1.63,0.67l1.62,1.4l0.95,1.62l0.39,1.6l0.03,0.61v72.49L1270.2,1693.88l-0.82,-0.82v-72.35" />
</g>
</g>
</g>
<g id="layer_LINVISTA" class="layer_LINVISTA"  cvjs:layerName="LINVISTA" cvjs:plottable="YES"
 cvjs:status="ON" visibility="visible">
<g id="cvclr_57" stroke="#7F0000" fill="none">
<path id="cv_58" class="ZW" d="M102.04,1204.08l-51.02,81.63M102.04,1285.71l-51.02,-81.63M1142.86,1285.71l-51.02,-81.63M1091.84,1285.71l51.02,-81.63M1367.35,1714.29L1265.31,1765.31M1367.35,1765.31L1265.31,1714.29" />
<path id="cv_59" class="ZW" d="M863.26,1146.94A 126.530612 126.530612 0 0 0 989.8 1020.42M265.31,1020.4A 126.530612 126.530612 0 0 0 391.83 1146.94M1427.04,786.73A 146.938776 146.938776 0 0 0 1280.11 639.8M1219.9,639.8A 146.938776 146.938776 0 0 0 1072.96 786.73M684.7,824.49A 146.938776 146.938776 0 0 0 537.76 971.42M2410.21,1577.55A 187.755102 187.755102 0 0 0 2222.45 1765.3M1464.29,824.49A 146.938776 146.938776 0 0 0 1317.35 971.42M1506.12,1020.4A 126.530612 126.530612 0 0 0 1632.64 1146.94" />
</g>
<g style="font-family: arial, helvetica, sans-serif" stroke="none" fill="#7F0000">
<g font-size="170.935254" stroke="none" fill="#7F0000">
<text id="cv_60" transform="scale(1.111111 1) translate(450 1519.42) rotate(330) " >For Demonstration Purposes Only</text>
<text id="cv_61" transform="scale(1.111111 1) translate(900 1519.42) rotate(330) " >Tailor Made Software, Ltd</text>
</g>
</g>
</g>
<g id="layer_ESTRUT" class="layer_ESTRUT"  cvjs:layerName="ESTRUT" cvjs:plottable="YES"
 cvjs:status="ON" visibility="visible">
<g id="cvclr_62" stroke="none" fill="#A50000" opacity="1.">
<path id="cv_63" d="M5.1,219.39h81.63v40.82l-81.63,-40.82 Z "/>
<path id="cv_64" d="M5.1,219.39l81.63,40.82h-81.63v-40.82 Z "/>
<path id="cv_65" d="M711.22,96.94V260.2h-40.82L711.22,96.94 Z "/>
<path id="cv_66" d="M711.22,96.94L670.41,260.2V96.94h40.82 Z "/>
<path id="cv_67" d="M1204.08,96.94h91.84v40.82l-91.84,-40.82 Z "/>
<path id="cv_68" d="M1204.08,96.94l91.84,40.82h-91.84v-40.82 Z "/>
<path id="cv_69" d="M1701.02,96.94H1813.27v40.82L1701.02,96.94 Z "/>
<path id="cv_70" d="M1701.02,96.94L1813.27,137.76H1701.02v-40.82 Z "/>
<path id="cv_71" d="M5.1,1288.78h91.84v40.82l-91.84,-40.82 Z "/>
<path id="cv_72" d="M5.1,1288.78l91.84,40.82h-91.84v-40.82 Z "/>
<path id="cv_73" d="M598.98,1288.78H711.22v40.82L598.98,1288.78 Z "/>
<path id="cv_74" d="M598.98,1288.78L711.22,1329.59H598.98v-40.82 Z "/>
<path id="cv_75" d="M2474.49,96.94v91.84h-40.82l40.82,-91.84 Z "/>
<path id="cv_76" d="M2474.49,96.94l-40.82,91.84v-91.84h40.82 Z "/>
<path id="cv_77" d="M2474.49,750v81.63h-40.82l40.82,-81.63 Z "/>
<path id="cv_78" d="M2474.49,750l-40.82,81.63v-81.63h40.82 Z "/>
<path id="cv_79" d="M2474.49,1288.78v81.63h-40.82l40.82,-81.63 Z "/>
<path id="cv_80" d="M2474.49,1288.78l-40.82,81.63v-81.63h40.82 Z "/>
<path id="cv_81" d="M1278.57,1288.78V1401.02h-40.82L1278.57,1288.78 Z "/>
<path id="cv_82" d="M1278.57,1288.78L1237.76,1401.02V1288.78h40.82 Z "/>
<path id="cv_83" d="M1237.76,1770.41h81.63v40.82l-81.63,-40.82 Z "/>
<path id="cv_84" d="M1237.76,1770.41l81.63,40.82h-81.63v-40.82 Z "/>
<path id="cv_85" d="M1701.02,1288.78H1813.27v40.82L1701.02,1288.78 Z "/>
<path id="cv_86" d="M1701.02,1288.78L1813.27,1329.59H1701.02v-40.82 Z "/>
<path id="cv_87" d="M2119.39,1770.41h81.63v40.82l-81.63,-40.82 Z "/>
<path id="cv_88" d="M2119.39,1770.41l81.63,40.82h-81.63v-40.82 Z "/>
<path id="cv_89" d="M1790.82,1786.73v81.63h-40.82l40.82,-81.63 Z "/>
<path id="cv_90" d="M1790.82,1786.73l-40.82,81.63v-81.63h40.82 Z "/>
</g>
<g style="font-family: arial, helvetica, sans-serif" stroke="none" fill="#7F0000">
<g font-size="170.935254" stroke="none" fill="#7F0000">
<text id="cv_91" transform="scale(1.111111 1) translate(450 1519.42) rotate(330) " >For Demonstration Purposes Only</text>
<text id="cv_92" transform="scale(1.111111 1) translate(900 1519.42) rotate(330) " >Tailor Made Software, Ltd</text>
</g>
</g>
</g>
<g id="layer_Cota" class="layer_Cota"  cvjs:layerName="Cota" cvjs:plottable="YES"
 cvjs:status="ON" visibility="visible">
<g id="cvclr_93" stroke="#0FF" fill="none">
<path id="cv_94" class=" ZW" d="M1295.92,1693.88h61.22v-14.32l-0.22,-1.6l-0.71,-1.61l-1.47,-1.61l-1.61,-0.89l-1.61,-0.35l-0.46,-0.02h-49.06l-1.6,0.22l-1.61,0.71l-1.61,1.47l-0.89,1.61l-0.35,1.61l-0.02,0.46v14.32" />
<circle id="cv_95" class="ZW" cx="1326.53" cy="1683.67" r="8.369602" />
</g>
<g style="font-family: arial, helvetica, sans-serif" stroke="none" fill="#7F0000">
<g font-size="170.935254" stroke="none" fill="#7F0000">
<text id="cv_96" transform="scale(1.111111 1) translate(450 1519.42) rotate(330) " >For Demonstration Purposes Only</text>
<text id="cv_97" transform="scale(1.111111 1) translate(900 1519.42) rotate(330) " >Tailor Made Software, Ltd</text>
</g>
</g>
</g>
<g id="layer_ARQ_2D_____2D_____2D_CTA" class="layer_ARQ_2D_____2D_____2D_CTA"  cvjs:layerName="ARQ-___-___-CTA" cvjs:plottable="YES"
 cvjs:status="ON" visibility="visible">
<g id="cvclr_98" stroke="#FF003F" fill="none">
<path id="cv_99" class="ZW" d="M1731.83,1899.28h78.03" />
</g>
<g style="font-family: arial, helvetica, sans-serif" stroke="none" fill="#7F0000">
<g font-size="170.935254" stroke="none" fill="#7F0000">
<text id="cv_100" transform="scale(1.111111 1) translate(450 1519.42) rotate(330) " >For Demonstration Purposes Only</text>
<text id="cv_101" transform="scale(1.111111 1) translate(900 1519.42) rotate(330) " >Tailor Made Software, Ltd</text>
</g>
</g>
</g>
<g id="layer_0" class="layer_0"  cvjs:layerName="0" cvjs:plottable="YES"
 cvjs:status="ON" visibility="visible">
<g id="cvclr_102" stroke="#000" fill="none">
<path id="cv_103" class=" ZW" d="M299.49,1269.39l-0.38,-1.6l-0.6,-0.86l-0.13,-0.13l-1.59,-0.88l-0.84,-0.11h-0.04l-1.6,0.39l-0.84,0.59l-0.13,0.13l-0.88,1.59l-0.11,0.84v0.04l0.39,1.6l0.59,0.84l0.13,0.13l1.59,0.88l0.84,0.11h0.04l1.6,-0.39l0.84,-0.59l0.13,-0.13l0.88,-1.59l0.11,-0.87M1195.92,1102.04l-0.38,-1.6l-0.6,-0.86l-0.13,-0.13l-1.59,-0.88l-0.84,-0.11h-0.04l-1.6,0.39l-0.84,0.59l-0.13,0.13l-0.88,1.59l-0.11,0.84v0.04l0.39,1.6l0.59,0.84l0.13,0.13l1.59,0.88l0.84,0.11h0.04l1.6,-0.39l0.84,-0.59l0.13,-0.13l0.88,-1.59l0.11,-0.87" />
<ellipse id="cv_104" class="ZW" cx="295.92" cy="1223.47" rx="44.897959" ry="33.673469"  />
<circle id="cv_105" class="ZW" cx="928.57" cy="1269.39" r="3.571429" />
<ellipse id="cv_106" class="ZW" cx="928.57" cy="1223.47" rx="44.897959" ry="33.673469"  />
</g>
<g style="font-family: arial, helvetica, sans-serif" stroke="none" fill="#7F0000">
<g font-size="170.935254" stroke="none" fill="#7F0000">
<text id="cv_107" transform="scale(1.111111 1) translate(450 1519.42) rotate(330) " >For Demonstration Purposes Only</text>
<text id="cv_108" transform="scale(1.111111 1) translate(900 1519.42) rotate(330) " >Tailor Made Software, Ltd</text>
</g>
</g>
</g>
<g id="layer_ARQ_2D_EQP_block" class="layer_ARQ_2D_EQP_block"  cvjs:layerName="ARQ-EQP" cvjs:plottable="YES"
 cvjs:status="ON" visibility="visible">
<g class="SAC818S2" id="cv_Block_SAC818S2_2">
<g id="cvclr_109" stroke="#A55252" fill="none">
<path id="cv_110" class=" ZW" d="M133.88,1093.88l1.61,0.15l1.64,0.51l1.61,0.94l1.4,1.35l1,1.61l0.54,1.61l0.18,1.64l-0.18,2.32l-0.54,1.61l-1,1.61l-1.44,1.38l-1.62,0.93l-1.64,0.5l-1.51,0.15h-13.32l-0.32,-1.61l-0.25,-1.63l-0.18,-1.64l-0.11,-1.64l-0.04,-1.65l0.04,-1.65l0.11,-1.64l0.18,-1.64l0.25,-1.63l0.32,-1.61h13.27" />
<path id="cv_111" class=" ZW" d="M114.69,1102.04v1.82l0.05,1.82l0.1,1.82l0.14,1.82l0.19,1.81l0.23,1.81l0.2,1.35l0.29,1.69l0.46,1.65l0.67,1.69l0.84,1.61l1.01,1.52l1.4,1.67l1.6,1.48l1.68,1.21l1.62,0.9l1.6,0.69l1.66,0.53l1.6,0.34l1.62,0.19l0.98,0.04l2.12,-0.01l2.12,-0.05l2.12,-0.09l2.12,-0.13l2.12,-0.17l2.11,-0.21l2.11,-0.24l2.1,-0.28l2.1,-0.32l1.39,-0.24l2.36,-0.4l2.35,-0.44l2.34,-0.48l2.33,-0.53l2.32,-0.57l2.31,-0.61l2.3,-0.65l1.62,-0.48l1.67,-0.77l1.64,-1.12l1.19,-1.1l1.43,-1.65l1.03,-1.64l0.73,-1.61l0.49,-1.61l0.07,-0.33l0.32,-1.78l0.1,-0.9l0.29,-1.96l0.23,-1.97l0.17,-1.97l0.11,-1.98l0.04,-1.19l-0.07,-1.98l-0.13,-1.97l-0.19,-1.97l-0.25,-1.96l-0.18,-1.17l-0.22,-1.66l-0.2,-1.01l-0.45,-1.62l-0.68,-1.63l-0.99,-1.66l-1.33,-1.63l-0.82,-0.82l-1.62,-1.28l-1.61,-0.89l-1.66,-0.61l-0.71,-0.18l-2.3,-0.65l-2.31,-0.61l-2.32,-0.57l-2.33,-0.53l-2.34,-0.48l-2.35,-0.44l-2.36,-0.4l-2.09,-0.35l-2.1,-0.31l-2.1,-0.27l-2.11,-0.23l-2.11,-0.19l-2.12,-0.15l-2.12,-0.11l-2.12,-0.08l-2.12,-0.04h-1.41l-1.63,0.1l-1.62,0.25l-1.69,0.43l-1.64,0.6l-1.67,0.81l-1.66,1.05l-1.61,1.3l-1.59,1.65l-1.11,1.47l-0.99,1.65l-0.76,1.65l-0.55,1.62l-0.39,1.67l-0.14,0.95l-0.26,1.8l-0.22,1.81l-0.18,1.81l-0.13,1.82l-0.09,1.82l-0.04,1.82v1.37" />
<path id="cv_112" class="ZW" d="M69.59,1056.73h3.67M75.41,1056.73h6.33M69.59,1147.35h3.67M88.78,1067.96l0,34.08l-0,34.08" />
</g>
<g id="cvclr_113" stroke="#7F1F00" fill="none">
<path id="cv_114" class=" ZW" d="M88.78,1067.96l2.38,-0.63l2.38,-0.65l2.38,-0.66l2.02,-0.44l2.03,-0.42l2.03,-0.39l2.04,-0.37l2.04,-0.34l2.05,-0.32l2.05,-0.3l1.03,-0.14l1.66,-0.21l1.91,-0.22l1.91,-0.18l1.91,-0.15l1.92,-0.11l1.92,-0.08l1.85,-0.08l1.86,-0.04h1.86l1.86,0.05l1.85,0.1l0.93,0.07l2.05,0.08l2.04,0.13l2.04,0.18l1.53,0.17l1.79,0.21l2.56,0.33l2.55,0.36l2.55,0.39l1.27,0.21l1.87,0.38l1.86,0.4l1.86,0.42l1.85,0.44l1.85,0.46l0.92,0.24l1.82,0.48l1.82,0.51l1.81,0.55l1.79,0.58l1.78,0.61l1.18,0.43l1.77,0.61l1.74,0.68l0.57,0.24l1.71,0.93l1.62,1.08l1.7,1.41l1.63,1.68l1.28,1.63l1.05,1.64l0.84,1.61l0.05,0.12l0.65,1.65l0.56,1.68l0.48,1.71l0.25,1.08l0.46,1.75l0.19,0.88l0.37,1.8l0.27,1.82l0.17,1.83l0.08,1.55l0.12,1.66l0.02,1.67l-0.06,1.33l0.06,1.66l-0.04,1.66l-0.11,1.33l-0.08,1.55l-0.17,1.83l-0.27,1.82l-0.37,1.8l-0.4,1.76l-0.24,0.87l-0.42,1.72l-0.51,1.7l-0.59,1.67l-0.41,1.03l-0.83,1.62l-1.04,1.65l-1.27,1.64l-1.62,1.69l-1.7,1.42l-1.61,1.09l-1.71,0.94l-0.12,0.06l-1.73,0.7l-1.76,0.63l-0.59,0.2l-1.78,0.64l-1.79,0.6l-1.8,0.57l-1.81,0.54l-1.82,0.5l-1.22,0.32l-1.84,0.47l-1.85,0.45l-1.85,0.43l-1.86,0.41l-1.86,0.39l-0.93,0.19l-2.54,0.4l-2.55,0.37l-2.55,0.34l-1.28,0.16l-1.79,0.21l-2.04,0.22l-2.04,0.17l-2.04,0.12l-1.53,0.05l-1.85,0.12l-1.86,0.07l-1.86,0.03l-1.86,-0.02l-1.86,-0.06l-0.93,-0.05l-1.92,-0.08l-1.92,-0.11l-1.91,-0.15l-1.91,-0.18l-1.91,-0.22l-1.66,-0.21l-2.05,-0.28l-2.05,-0.31l-2.05,-0.33l-2.04,-0.36l-2.04,-0.38l-2.03,-0.41l-2.03,-0.43l-1.01,-0.22l-2.38,-0.66l-2.38,-0.65l-2.38,-0.63" />
<path id="cv_115" class=" ZW" d="M88.78,1136.12v7.76l-0.4,1.71l-0.35,0.52l-0.49,0.49l-1.59,0.71l-0.44,0.04h-12.24v0.58l-0.02,0.05l-0.25,0.17l-1.62,0.43l-1.5,-0.43l-0.25,-0.17l-0.02,-0.63h-12.04l-1.6,-0.53l-1.48,-1.6l-0.32,-0.94l-0.06,-0.63v-83.2l0.06,-0.63l0.74,-1.6l1.61,-1.22l1.06,-0.26h12.04v-0.58l0.02,-0.05l0.25,-0.17l1.62,-0.43l1.5,0.43l0.25,0.17l0.02,0.63h2.14v-2.86h-0.51v-3.27h7.35v3.27h-0.51v2.86h3.78l1.6,0.45l0.43,0.3l0.49,0.49l0.71,1.68l0.03,0.55v7.76" />
</g>
</g>
<g class="SACHS__2" id="cv_Block_SACHS__2_3">
<g id="cvclr_116" stroke="#A55252" fill="none">
<path id="cv_117" class=" ZW" d="M527.76,1153.06l0.13,-1.59l0.41,-1.61l0.73,-1.62l1.14,-1.61l1.63,-1.49l1.64,-0.96l1.62,-0.58l1.64,-0.29l1.6,-0.01l1.64,0.26l1.63,0.56l1.6,0.91l1.62,1.42l1.21,1.63l0.76,1.61l0.44,1.6l0.16,1.65l-0.11,1.59l-0.39,1.61l-0.71,1.63l-1.12,1.62l-1.61,1.51l-1.63,0.99l-1.61,0.6l-1.63,0.31l-1.6,0.03l-1.64,-0.24l-1.63,-0.54l-1.62,-0.89l-1.63,-1.4l-1.23,-1.61l-0.78,-1.6l-0.46,-1.6l-0.18,-1.65v-0.25" />
<path id="cv_118" class="ZW" d="M537.55,1134.78l0,36.57M554.53,1153.06h-35.27" />
</g>
<g id="cvclr_119" stroke="#7F1F00" fill="none">
<path id="cv_120" class="ZW" d="M553.4,1156.98h69.05M553.4,1149.14h69.05l0,7.84" />
<path id="cv_121" class="ZW" d="M553.4,1149.14A 16.326531 16.326531 0 1 0 553.4 1156.98" />
</g>
</g>
<g class="SAC818S2" id="cv_Block_SAC818S2_4">
<g id="cvclr_122" stroke="#A55252" fill="none">
<path id="cv_123" class=" ZW" d="M1060,1093.88l-1.61,0.15l-1.64,0.51l-1.61,0.94l-1.4,1.35l-1,1.61l-0.54,1.61l-0.18,1.64l0.18,2.32l0.54,1.61l1,1.61l1.44,1.38l1.62,0.93l1.64,0.5l1.51,0.15h13.32l0.32,-1.61l0.25,-1.63l0.18,-1.64l0.11,-1.64l0.04,-1.65l-0.04,-1.65l-0.11,-1.64l-0.18,-1.64l-0.25,-1.63l-0.32,-1.61h-13.27" />
<path id="cv_124" class=" ZW" d="M1079.18,1102.04v1.82l-0.05,1.82l-0.1,1.82l-0.14,1.82l-0.19,1.81l-0.23,1.81l-0.2,1.35l-0.29,1.69l-0.46,1.65l-0.67,1.69l-0.84,1.61l-1.01,1.52l-1.4,1.67l-1.6,1.48l-1.68,1.21l-1.62,0.9l-1.6,0.69l-1.66,0.53l-1.6,0.34l-1.62,0.19l-0.98,0.04l-2.12,-0.01l-2.12,-0.05l-2.12,-0.09l-2.12,-0.13l-2.12,-0.17l-2.11,-0.21l-2.11,-0.24l-2.1,-0.28l-2.1,-0.32l-1.39,-0.24l-2.36,-0.4l-2.35,-0.44l-2.34,-0.48l-2.33,-0.53l-2.32,-0.57l-2.31,-0.61l-2.3,-0.65l-1.62,-0.48l-1.67,-0.77l-1.64,-1.12l-1.19,-1.1l-1.43,-1.65l-1.03,-1.64l-0.73,-1.61l-0.49,-1.61l-0.07,-0.33l-0.32,-1.78l-0.1,-0.9l-0.29,-1.96l-0.23,-1.97l-0.17,-1.97l-0.11,-1.98l-0.04,-1.19l0.07,-1.98l0.13,-1.97l0.19,-1.97l0.25,-1.96l0.18,-1.17l0.22,-1.66l0.2,-1.01l0.45,-1.62l0.68,-1.63l0.99,-1.66l1.33,-1.63l0.82,-0.82l1.62,-1.28l1.61,-0.89l1.66,-0.61l0.71,-0.18l2.3,-0.65l2.31,-0.61l2.32,-0.57l2.33,-0.53l2.34,-0.48l2.35,-0.44l2.36,-0.4l2.09,-0.35l2.1,-0.31l2.1,-0.27l2.11,-0.23l2.11,-0.19l2.12,-0.15l2.12,-0.11l2.12,-0.08l2.12,-0.04h1.41l1.63,0.1l1.62,0.25l1.69,0.43l1.64,0.6l1.67,0.81l1.66,1.05l1.61,1.3l1.59,1.65l1.11,1.47l0.99,1.65l0.76,1.65l0.55,1.62l0.39,1.67l0.14,0.95l0.26,1.8l0.22,1.81l0.18,1.81l0.13,1.82l0.09,1.82l0.04,1.82v1.37" />
<path id="cv_125" class="ZW" d="M1124.29,1056.73h-3.67M1118.47,1056.73h-6.33M1124.29,1147.35h-3.67M1105.1,1067.96l0,34.08l0,34.08" />
</g>
<g id="cvclr_126" stroke="#7F1F00" fill="none">
<path id="cv_127" class=" ZW" d="M1105.1,1067.96l-2.38,-0.63l-2.38,-0.65l-2.38,-0.66l-2.02,-0.44l-2.03,-0.42l-2.03,-0.39l-2.04,-0.37l-2.04,-0.34l-2.05,-0.32l-2.05,-0.3l-1.03,-0.14l-1.66,-0.21l-1.91,-0.22l-1.91,-0.18l-1.91,-0.15l-1.92,-0.11l-1.92,-0.08l-1.85,-0.08l-1.86,-0.04h-1.86l-1.86,0.05l-1.85,0.1l-0.93,0.07l-2.05,0.08l-2.04,0.13l-2.04,0.18l-1.53,0.17l-1.79,0.21l-2.56,0.33l-2.55,0.36l-2.55,0.39l-1.27,0.21l-1.87,0.38l-1.86,0.4l-1.86,0.42l-1.85,0.44l-1.85,0.46l-0.92,0.24l-1.82,0.48l-1.82,0.51l-1.81,0.55l-1.79,0.58l-1.78,0.61l-1.18,0.43l-1.77,0.61l-1.74,0.68l-0.57,0.24l-1.71,0.93l-1.62,1.08l-1.7,1.41l-1.63,1.68l-1.28,1.63l-1.05,1.64l-0.84,1.61l-0.05,0.12l-0.65,1.65l-0.56,1.68l-0.48,1.71l-0.25,1.08l-0.46,1.75l-0.19,0.88l-0.37,1.8l-0.27,1.82l-0.17,1.83l-0.08,1.55l-0.12,1.66l-0.02,1.67l0.06,1.33l-0.06,1.66l0.04,1.66l0.11,1.33l0.08,1.55l0.17,1.83l0.27,1.82l0.37,1.8l0.4,1.76l0.24,0.87l0.42,1.72l0.51,1.7l0.59,1.67l0.41,1.03l0.83,1.62l1.04,1.65l1.27,1.64l1.62,1.69l1.7,1.42l1.61,1.09l1.71,0.94l0.12,0.06l1.73,0.7l1.76,0.63l0.59,0.2l1.78,0.64l1.79,0.6l1.8,0.57l1.81,0.54l1.82,0.5l1.22,0.32l1.84,0.47l1.85,0.45l1.85,0.43l1.86,0.41l1.86,0.39l0.93,0.19l2.54,0.4l2.55,0.37l2.55,0.34l1.28,0.16l1.79,0.21l2.04,0.22l2.04,0.17l2.04,0.12l1.53,0.05l1.85,0.12l1.86,0.07l1.86,0.03l1.86,-0.02l1.86,-0.06l0.93,-0.05l1.92,-0.08l1.92,-0.11l1.91,-0.15l1.91,-0.18l1.91,-0.22l1.66,-0.21l2.05,-0.28l2.05,-0.31l2.05,-0.33l2.04,-0.36l2.04,-0.38l2.03,-0.41l2.03,-0.43l1.01,-0.22l2.38,-0.66l2.38,-0.65l2.38,-0.63" />
<path id="cv_128" class=" ZW" d="M1105.1,1136.12v7.76l0.4,1.71l0.35,0.52l0.49,0.49l1.59,0.71l0.44,0.04h12.24v0.58l0.02,0.05l0.25,0.17l1.62,0.43l1.5,-0.43l0.25,-0.17l0.02,-0.63h12.04l1.6,-0.53l1.48,-1.6l0.32,-0.94l0.06,-0.63v-83.2l-0.06,-0.63l-0.74,-1.6l-1.61,-1.22l-1.06,-0.26h-12.04v-0.58l-0.02,-0.05l-0.25,-0.17l-1.62,-0.43l-1.5,0.43l-0.25,0.17l-0.02,0.63h-2.14v-2.86h0.51v-3.27h-7.35v3.27h0.51v2.86h-3.78l-1.6,0.45l-0.43,0.3l-0.49,0.49l-0.71,1.68l-0.03,0.55v7.76" />
</g>
</g>
<g class="SACHS__2" id="cv_Block_SACHS__2_5">
<g id="cvclr_129" stroke="#A55252" fill="none">
<path id="cv_130" class=" ZW" d="M747.76,1153.06l-0.13,-1.59l-0.41,-1.61l-0.73,-1.62l-1.14,-1.61l-1.63,-1.49l-1.64,-0.96l-1.62,-0.58l-1.64,-0.29l-1.6,-0.01l-1.64,0.26l-1.63,0.56l-1.6,0.91l-1.62,1.42l-1.21,1.63l-0.76,1.61l-0.44,1.6l-0.16,1.65l0.11,1.59l0.39,1.61l0.71,1.63l1.12,1.62l1.61,1.51l1.63,0.99l1.61,0.6l1.63,0.31l1.6,0.03l1.64,-0.24l1.63,-0.54l1.62,-0.89l1.63,-1.4l1.23,-1.61l0.78,-1.6l0.46,-1.6l0.18,-1.65v-0.25" />
<path id="cv_131" class="ZW" d="M737.96,1134.78l0,36.57M720.98,1153.06h35.27" />
</g>
<g id="cvclr_132" stroke="#7F1F00" fill="none">
<path id="cv_133" class="ZW" d="M722.11,1156.98h-69.05M722.11,1149.14h-69.05l0,7.84" />
<path id="cv_134" class="ZW" d="M722.11,1156.98A 16.326531 16.326531 0 1 0 722.11 1149.14" />
</g>
</g>
<g class="SAC818S2" id="cv_Block_SAC818S2_6">
<g id="cvclr_135" stroke="#A55252" fill="none">
<path id="cv_136" class=" ZW" d="M1363.27,1202.86l0.15,-1.61l0.51,-1.64l0.94,-1.61l1.35,-1.4l1.61,-1l1.61,-0.54l1.64,-0.18l2.32,0.18l1.61,0.54l1.61,1l1.38,1.44l0.93,1.62l0.5,1.64l0.15,1.51v13.32l-1.61,0.32l-1.63,0.25l-1.64,0.18l-1.64,0.11l-1.65,0.04l-1.65,-0.04l-1.64,-0.11l-1.64,-0.18l-1.63,-0.25l-1.61,-0.32v-13.27" />
<path id="cv_137" class=" ZW" d="M1371.43,1222.04h1.82l1.82,-0.05l1.82,-0.1l1.82,-0.14l1.81,-0.19l1.81,-0.23l1.35,-0.2l1.69,-0.29l1.65,-0.46l1.69,-0.67l1.61,-0.84l1.52,-1.01l1.67,-1.4l1.48,-1.6l1.21,-1.68l0.9,-1.62l0.69,-1.6l0.53,-1.66l0.34,-1.6l0.19,-1.62l0.04,-0.98l-0.01,-2.12l-0.05,-2.12l-0.09,-2.12l-0.13,-2.12l-0.17,-2.12l-0.21,-2.11l-0.24,-2.11l-0.28,-2.1l-0.32,-2.1l-0.24,-1.39l-0.4,-2.36l-0.44,-2.35l-0.48,-2.34l-0.53,-2.33l-0.57,-2.32l-0.61,-2.31l-0.65,-2.3l-0.48,-1.62l-0.77,-1.67l-1.12,-1.64l-1.1,-1.19l-1.65,-1.43l-1.64,-1.03l-1.61,-0.73l-1.61,-0.49l-0.33,-0.07l-1.78,-0.32l-0.9,-0.1l-1.96,-0.29l-1.97,-0.23l-1.97,-0.17l-1.98,-0.11l-1.19,-0.04l-1.98,0.07l-1.97,0.13l-1.97,0.19l-1.96,0.25l-1.17,0.18l-1.66,0.22l-1.01,0.2l-1.62,0.45l-1.63,0.68l-1.66,0.99l-1.63,1.33l-0.82,0.82l-1.28,1.62l-0.89,1.61l-0.61,1.66l-0.18,0.71l-0.65,2.3l-0.61,2.31l-0.57,2.32l-0.53,2.33l-0.48,2.34l-0.44,2.35l-0.4,2.36l-0.35,2.09l-0.31,2.1l-0.27,2.1l-0.23,2.11l-0.19,2.11l-0.15,2.12l-0.11,2.12l-0.08,2.12l-0.04,2.12v1.41l0.1,1.63l0.25,1.62l0.43,1.69l0.6,1.64l0.81,1.67l1.05,1.66l1.3,1.61l1.65,1.59l1.47,1.11l1.65,0.99l1.65,0.76l1.62,0.55l1.67,0.39l0.95,0.14l1.8,0.26l1.81,0.22l1.81,0.18l1.82,0.13l1.82,0.09l1.82,0.04h1.37" />
<path id="cv_138" class="ZW" d="M1326.12,1267.14l0,-3.67M1326.12,1261.33l0,-6.33M1416.73,1267.14l0,-3.67M1337.35,1247.96h34.08h34.08" />
</g>
<g id="cvclr_139" stroke="#7F1F00" fill="none">
<path id="cv_140" class=" ZW" d="M1337.35,1247.96l-0.63,-2.38l-0.65,-2.38l-0.66,-2.38l-0.44,-2.02l-0.42,-2.03l-0.39,-2.03l-0.37,-2.04l-0.34,-2.04l-0.32,-2.05l-0.3,-2.05l-0.14,-1.03l-0.21,-1.66l-0.22,-1.91l-0.18,-1.91l-0.15,-1.91l-0.11,-1.92l-0.08,-1.92l-0.08,-1.85l-0.04,-1.86v-1.86l0.05,-1.86l0.1,-1.85l0.07,-0.93l0.08,-2.05l0.13,-2.04l0.18,-2.04l0.17,-1.53l0.21,-1.79l0.33,-2.56l0.36,-2.55l0.39,-2.55l0.21,-1.27l0.38,-1.87l0.4,-1.86l0.42,-1.86l0.44,-1.85l0.46,-1.85l0.24,-0.92l0.48,-1.82l0.51,-1.82l0.55,-1.81l0.58,-1.79l0.61,-1.78l0.43,-1.18l0.61,-1.77l0.68,-1.74l0.24,-0.57l0.93,-1.71l1.08,-1.62l1.41,-1.7l1.68,-1.63l1.63,-1.28l1.64,-1.05l1.61,-0.84l0.12,-0.05l1.65,-0.65l1.68,-0.56l1.71,-0.48l1.08,-0.25l1.75,-0.46l0.88,-0.19l1.8,-0.37l1.82,-0.27l1.83,-0.17l1.55,-0.08l1.66,-0.12l1.67,-0.02l1.33,0.06l1.66,-0.06l1.66,0.04l1.33,0.11l1.55,0.08l1.83,0.17l1.82,0.27l1.8,0.37l1.76,0.4l0.87,0.24l1.72,0.42l1.7,0.51l1.67,0.59l1.03,0.41l1.62,0.83l1.65,1.04l1.64,1.27l1.69,1.62l1.42,1.7l1.09,1.61l0.94,1.71l0.06,0.12l0.7,1.73l0.63,1.76l0.2,0.59l0.64,1.78l0.6,1.79l0.57,1.8l0.54,1.81l0.5,1.82l0.32,1.22l0.47,1.84l0.45,1.85l0.43,1.85l0.41,1.86l0.39,1.86l0.19,0.93l0.4,2.54l0.37,2.55l0.34,2.55l0.16,1.28l0.21,1.79l0.22,2.04l0.17,2.04l0.12,2.04l0.05,1.53l0.12,1.85l0.07,1.86l0.03,1.86l-0.02,1.86l-0.06,1.86l-0.05,0.93l-0.08,1.92l-0.11,1.92l-0.15,1.91l-0.18,1.91l-0.22,1.91l-0.21,1.66l-0.28,2.05l-0.31,2.05l-0.33,2.05l-0.36,2.04l-0.38,2.04l-0.41,2.03l-0.43,2.03l-0.22,1.01l-0.66,2.38l-0.65,2.38l-0.63,2.38" />
<path id="cv_141" class=" ZW" d="M1405.51,1247.96h7.76l1.71,0.4l0.52,0.35l0.49,0.49l0.71,1.59l0.04,0.44v12.24h0.58l0.05,0.02l0.17,0.25l0.43,1.62l-0.43,1.5l-0.17,0.25l-0.63,0.02v12.04l-0.53,1.6l-1.6,1.48l-0.94,0.32l-0.63,0.06h-83.2l-0.63,-0.06l-1.6,-0.74l-1.22,-1.61l-0.26,-1.06v-12.04h-0.58l-0.05,-0.02l-0.17,-0.25l-0.43,-1.62l0.43,-1.5l0.17,-0.25l0.63,-0.02v-2.14h-2.86v0.51h-3.27v-7.35h3.27v0.51h2.86v-3.78l0.45,-1.6l0.3,-0.43l0.49,-0.49l1.68,-0.71l0.55,-0.03h7.76" />
</g>
</g>
</g>
<g id="layer_ARQ_2D_____2D_____2D_TXT_block" class="layer_ARQ_2D_____2D_____2D_TXT_block"  cvjs:layerName="ARQ-___-___-TXT" cvjs:plottable="YES"
 cvjs:status="ON" visibility="visible">
<g class="IndUni1" id="cv_Block_IndUni1_7" cvjs:block='IndUni1_7' cvjs:attribId='cv_Attrib_1' cvjs:attribCount="2" >
<g id="cvclr_142" stroke="#0FF" fill="none">
<g style="font-family: arial, helvetica, sans-serif" stroke="none" fill="#0FF">
<g font-size="32.142857" stroke="none" fill="#0FF">
<text id="cv_143" transform="scale(1.477778 1) translate(148.97 1137.59) "  cvjs:tag='NOME1' >Banho</text>
</g>
</g>
<g style="font-family: arial, helvetica, sans-serif" stroke="none" fill="#0FF">
<g font-size="35.816327" stroke="none" fill="#0FF">
<text id="cv_144" transform="scale(1.555556 1) translate(150.45 1105.26) "  cvjs:tag='NOME2' >Su&#x00ED;te</text>
</g>
</g>
</g>
</g>
<g class="IndUni1" id="cv_Block_IndUni1_8" cvjs:block='IndUni1_8' cvjs:attribId='cv_Attrib_2' cvjs:attribCount="1" >
<g id="cvclr_145" stroke="#0FF" fill="none">
<g style="font-family: arial, helvetica, sans-serif" stroke="none" fill="#0FF">
<g font-size="35.816327" stroke="none" fill="#0FF">
<text id="cv_146" transform="scale(1.555556 1) translate(197.7 663.38) "  cvjs:tag='NOME2' >Su&#x00ED;te</text>
</g>
</g>
</g>
</g>
<g class="IndUni1" id="cv_Block_IndUni1_9" cvjs:block='IndUni1_9' cvjs:attribId='cv_Attrib_3' cvjs:attribCount="2" >
<g id="cvclr_147" stroke="#0FF" fill="none">
<g style="font-family: arial, helvetica, sans-serif" stroke="none" fill="#0FF">
<g font-size="35.816327" stroke="none" fill="#0FF">
<text id="cv_148" transform="scale(1.555556 1) translate(547.21 1140.37) "  cvjs:tag='NOME1' >Banho</text>
<text id="cv_149" transform="scale(1.555556 1) translate(549.91 1108.04) "  cvjs:tag='NOME2' >Social</text>
</g>
</g>
</g>
</g>
<g class="IndUni1" id="cv_Block_IndUni1_10" cvjs:block='IndUni1_10' cvjs:attribId='cv_Attrib_4' cvjs:attribCount="1" >
<g id="cvclr_150" stroke="#0FF" fill="none">
<g style="font-family: arial, helvetica, sans-serif" stroke="none" fill="#0FF">
<g font-size="35.816327" stroke="none" fill="#0FF">
<text id="cv_151" transform="scale(1.555556 1) translate(850.29 1111.38) "  cvjs:tag='NOME2' >Lavabo</text>
</g>
</g>
</g>
</g>
<g class="IndUni1" id="cv_Block_IndUni1_11" cvjs:block='IndUni1_11' cvjs:attribId='cv_Attrib_5' cvjs:attribCount="1" >
<g id="cvclr_152" stroke="#0FF" fill="none">
<g style="font-family: arial, helvetica, sans-serif" stroke="none" fill="#0FF">
<g font-size="35.816327" stroke="none" fill="#0FF">
<text id="cv_153" transform="scale(1.555556 1) translate(601.07 910.9) "  cvjs:tag='NOME2' >Circula&#x00E7;&#x00E3;o</text>
</g>
</g>
</g>
</g>
<g class="IndUni1" id="cv_Block_IndUni1_12" cvjs:block='IndUni1_12' cvjs:attribId='cv_Attrib_6' cvjs:attribCount="1" >
<g id="cvclr_154" stroke="#0FF" fill="none">
<g style="font-family: arial, helvetica, sans-serif" stroke="none" fill="#0FF">
<g font-size="35.816327" stroke="none" fill="#0FF">
<text id="cv_155" transform="scale(1.555556 1) translate(544.98 491.72) "  cvjs:tag='NOME2' >Dormit&#x00F3;rio 1</text>
</g>
</g>
</g>
</g>
<g class="IndUni1" id="cv_Block_IndUni1_13" cvjs:block='IndUni1_13' cvjs:attribId='cv_Attrib_7' cvjs:attribCount="1" >
<g id="cvclr_156" stroke="#0FF" fill="none">
<g style="font-family: arial, helvetica, sans-serif" stroke="none" fill="#0FF">
<g font-size="35.816327" stroke="none" fill="#0FF">
<text id="cv_157" transform="scale(1.555556 1) translate(895.44 490.25) "  cvjs:tag='NOME2' >Dormit&#x00F3;rio 2</text>
</g>
</g>
</g>
</g>
<g class="IndUni1" id="cv_Block_IndUni1_14" cvjs:block='IndUni1_14' cvjs:attribId='cv_Attrib_8' cvjs:attribCount="1" >
<g id="cvclr_158" stroke="#0FF" fill="none">
<g style="font-family: arial, helvetica, sans-serif" stroke="none" fill="#0FF">
<g font-size="35.816327" stroke="none" fill="#0FF">
<text id="cv_159" transform="scale(1.555556 1) translate(833.35 1548.63) "  cvjs:tag='NOME2' >A. Servi&#x00E7;o</text>
</g>
</g>
</g>
</g>
<g class="IndUni1" id="cv_Block_IndUni1_15" cvjs:block='IndUni1_15' cvjs:attribId='cv_Attrib_9' cvjs:attribCount="1" >
<g id="cvclr_160" stroke="#0FF" fill="none">
<g style="font-family: arial, helvetica, sans-serif" stroke="none" fill="#0FF">
<g font-size="35.816327" stroke="none" fill="#0FF">
<text id="cv_161" transform="scale(1.555556 1) translate(1200.67 1561.53) "  cvjs:tag='NOME2' >Cozinha</text>
</g>
</g>
</g>
</g>
<g class="IndUni1" id="cv_Block_IndUni1_16" cvjs:block='IndUni1_16' cvjs:attribId='cv_Attrib_10' cvjs:attribCount="1" >
<g id="cvclr_162" stroke="#0FF" fill="none">
<g style="font-family: arial, helvetica, sans-serif" stroke="none" fill="#0FF">
<g font-size="35.816327" stroke="none" fill="#0FF">
<text id="cv_163" transform="scale(1.555556 1) translate(1282.6 755.02) "  cvjs:tag='NOME2' >Estar/Jantar</text>
</g>
</g>
</g>
</g>
<g class="IndUni1" id="cv_Block_IndUni1_17" cvjs:block='IndUni1_17' cvjs:attribId='cv_Attrib_11' cvjs:attribCount="1" >
<g id="cvclr_164" stroke="#0FF" fill="none">
<g style="font-family: arial, helvetica, sans-serif" stroke="none" fill="#0FF">
<g font-size="35.816327" stroke="none" fill="#0FF">
<text id="cv_165" transform="scale(1.555556 1) translate(1457.93 1552.88) "  cvjs:tag='NOME2' >Hall</text>
</g>
</g>
</g>
</g>
</g>
</g></svg>